# xmcd CD database file
#
# Track frame offsets:
#	150
#	13835
#	27516
#	39060
#	51303
#	64110
#	76313
#	86854
#	101852
#	111593
#	123281
#	134777
#	148551
#	162226
#	174765
#	187050
#	199297
#	211236
#	221775
#	235174
#
# Disc length: 3295 seconds
#
# Revision: 6
# Processed by: cddbd v1.5.2PL0 Copyright (c) Steve Scherf et al.
# Submitted via: CDex 1.51
#
DISCID=2d0cdd14
DTITLE=Django Reinhardt - Djangology - Vol.10
DYEAR=1900
DGENRE=Jazz
TTITLE0=Djangology  (Reinhardt)
TTITLE1=Eclats De Cuivres  (Brenders)
TTITLE2=Django Rag  (Reinhardt - Brenders)
TTITLE3=Dynamisme  (Saguet)
TTITLE4=Tons d'Ébène  (Demany)
TTITLE5=Chez Moi À Six Heures  (Van Hecke)
TTITLE6=Douce Ambiance  (Reinhardt)
TTITLE7=Manoir De Mes Rèves  (Reinhardt)
TTITLE8=Oui  (Combelle - Gasté)
TTITLE9=Cavalerie  (Reinhardt)
TTITLE10=Fleur d'Ennui  (Reinhardt - Blanche)
TTITLE11=Blues Clair  (Reinhardt)
TTITLE12=Improvisation N°3 - Part 1  (Reinhardt)
TTITLE13=Improvisation N°3 - Part 2  (Reinhardt)
TTITLE14=Belleville  (Reinhardt)
TTITLE15=Oubli  (Reinhardt)
TTITLE16=Zuiderzee Blues  (Bultermann)
TTITLE17=ABC  (Candrix)
TTITLE18=Mélodie Au Crépuscule  (Reinhardt - Riesner)
TTITLE19=Gaiement  (Reinhardt)
EXTD=
EXTT0=
EXTT1=
EXTT2=
EXTT3=
EXTT4=
EXTT5=
EXTT6=
EXTT7=
EXTT8=
EXTT9=
EXTT10=
EXTT11=
EXTT12=
EXTT13=
EXTT14=
EXTT15=
EXTT16=
EXTT17=
EXTT18=
EXTT19=
PLAYORDER=
